<?xml version="1.0" encoding="utf-8"?>
<!-- Generator: Adobe Illustrator 16.0.0, SVG Export Plug-In . SVG Version: 6.00 Build 0)  -->
<!DOCTYPE svg PUBLIC "-//W3C//DTD SVG 1.1//EN" "http://www.w3.org/Graphics/SVG/1.1/DTD/svg11.dtd">
<svg version="1.1" id="Camada_1" xmlns="http://www.w3.org/2000/svg" xmlns:xlink="http://www.w3.org/1999/xlink" x="0px" y="0px"
	 width="16px" height="16px" viewBox="0 0 16 16" enable-background="new 0 0 16 16" xml:space="preserve">
<rect fill="#FFFFFF" width="16" height="16"/>
<g>
	<path fill="#333333" d="M14.19,4.808h-2.364v4.153c0,0.551-0.447,1-1,1H5.175v1.867c0,0.553,0.447,1,1,1h6.842l2.174,2.287v-3.281
		c0-0.002,0-0.004,0-0.006V5.808C15.19,5.255,14.743,4.808,14.19,4.808z"/>
	<path fill="#EB5757" d="M9.826,0.885H1.81c-0.552,0-1,0.448-1,1v6.02c0,0.002,0.001,0.004,0.001,0.006v3.281l2.173-2.287h6.842
		c0.553,0,1-0.447,1-1v-6.02C10.826,1.333,10.379,0.885,9.826,0.885z"/>
</g>
</svg>
