<svg width="1000" height="1000" viewBox="0 0 1000 1000" fill="none" xmlns="http://www.w3.org/2000/svg">
<path d="M166.667 483.333C166.667 382 248.667 300 350 300H700C773.667 300 833.334 359.667 833.334 433.333C833.334 507 773.667 566.667 700 566.667H416.667C370.667 566.667 333.334 529.333 333.334 483.333C333.334 437.333 370.667 400 416.667 400H666.667V466.667H413.667C395.334 466.667 395.334 500 413.667 500H700C736.667 500 766.667 470 766.667 433.333C766.667 396.667 736.667 366.667 700 366.667H350C285.667 366.667 233.334 419 233.334 483.333C233.334 547.667 285.667 600 350 600H666.667V666.667H350C248.667 666.667 166.667 584.667 166.667 483.333Z" fill="black"/>
</svg>
