<svg width="1000" height="1000" viewBox="0 0 1000 1000" fill="none" xmlns="http://www.w3.org/2000/svg">
<path d="M592.363 543.267C625.029 505.267 633.333 470.333 633.333 416.667C633.333 297 536.333 200 416.667 200C297 200 200 297 200 416.667C200 536.333 297 633.333 416.667 633.333C470.333 633.333 505.484 624.872 543.484 592.205L733.333 783L783 733.333L592.363 543.267ZM416.667 566.667C333.667 566.667 266.667 499.667 266.667 416.667C266.667 333.667 333.667 266.667 416.667 266.667C499.667 266.667 566.667 333.667 566.667 416.667C566.667 499.667 499.667 566.667 416.667 566.667Z" fill="black"/>
</svg>
