<svg width="1000" height="1000" viewBox="0 0 1000 1000" fill="none" xmlns="http://www.w3.org/2000/svg">
<path d="M694.088 653.745C668.912 653.745 643.737 664.5 629.351 682.426L345.228 521.096C348.825 510.34 348.825 503.17 348.825 496C348.825 488.83 348.825 478.074 345.228 470.904L629.351 309.574C647.333 327.5 668.912 338.255 694.088 338.255C744.439 338.255 784 298.819 784 248.628C784 198.436 744.439 159 694.088 159C643.737 159 604.175 198.436 604.175 248.628C604.175 255.798 604.175 262.968 607.772 270.138L323.649 431.468C305.667 417.128 284.088 406.372 258.912 406.372C208.561 406.372 169 445.809 169 496C169 546.192 208.561 585.628 258.912 585.628C284.088 585.628 305.667 574.872 320.053 560.532L604.175 721.862C604.175 729.032 600.579 736.202 600.579 743.372C600.579 793.564 640.14 833 690.491 833C740.842 833 780.404 793.564 780.404 743.372C780.404 693.181 744.439 653.745 694.088 653.745Z" fill="black"/>
</svg>
