<svg width="1000" height="1000" viewBox="0 0 1000 1000" fill="none" xmlns="http://www.w3.org/2000/svg">
<path d="M400 466.667H333.333V533.334H400V466.667ZM533.333 466.667H466.667V533.334H533.333V466.667ZM666.667 466.667H600V533.334H666.667V466.667ZM733.333 233.334H700V166.667H633.333V233.334H366.667V166.667H300V233.334H266.667C229.667 233.334 200.333 263.334 200.333 300L200 766.667C200 803.334 229.667 833.334 266.667 833.334H733.333C770 833.334 800 803.334 800 766.667V300C800 263.334 770 233.334 733.333 233.334ZM733.333 766.667H266.667V400H733.333V766.667Z" fill="black"/>
</svg>
