<svg width="30" height="30" viewBox="0 0 30 30" fill="none" xmlns="http://www.w3.org/2000/svg">
<path d="M14.5 5C8.70103 5 4 9.70137 4 15.5008C4 21.2986 8.70103 26 14.5 26C20.299 26 25 21.2986 25 15.5C25 9.70061 20.299 5 14.5 5ZM10.9468 21.9467H8.11123V19.1109L16.4743 10.748L19.3099 13.5838L10.9468 21.9467ZM21.5028 11.3907L20.119 12.7746L17.2834 9.93882L18.6672 8.55495C18.9621 8.26003 19.4392 8.26003 19.7334 8.55495L21.5028 10.3245C21.7969 10.6194 21.7969 11.0958 21.5028 11.3907Z" fill="black"/>
</svg>
