<svg width="1000" height="1000" viewBox="0 0 1000 1000" fill="none" xmlns="http://www.w3.org/2000/svg">
<path fill-rule="evenodd" clip-rule="evenodd" d="M526.154 200C356.543 200 219 337.523 219 507.18C219 642.899 307.006 758.03 429.079 798.653C444.438 801.452 450.045 791.986 450.045 783.847C450.045 776.555 449.777 757.219 449.629 731.585C364.184 750.148 346.155 690.409 346.155 690.409C332.189 654.942 312.052 645.476 312.052 645.476C284.162 626.435 314.16 626.803 314.16 626.803C344.987 628.976 361.21 658.477 361.21 658.477C388.612 705.398 433.103 691.844 450.606 683.999C453.397 664.148 461.333 650.595 470.108 642.934C401.898 635.162 330.189 608.829 330.189 491.112C330.189 457.578 342.16 430.157 361.809 408.686C358.651 400.915 348.108 369.683 364.819 327.393C364.819 327.393 390.609 319.133 449.289 358.882C473.789 352.069 500.069 348.662 526.189 348.542C552.283 348.662 578.543 352.069 603.091 358.882C661.743 319.133 687.488 327.393 687.488 327.393C704.245 369.683 693.692 400.915 690.544 408.686C710.212 430.158 722.106 457.578 722.106 491.112C722.106 609.124 650.288 635.089 581.859 642.676C592.889 652.179 602.705 670.925 602.705 699.579C602.705 740.645 602.335 773.754 602.335 783.846C602.335 792.059 607.86 801.598 623.459 798.615C745.421 757.918 833.334 642.862 833.334 507.179C833.334 337.523 695.811 200 526.154 200Z" fill="#221E1B"/>
</svg>
