<svg width="1000" height="1000" viewBox="0 0 1000 1000" fill="none" xmlns="http://www.w3.org/2000/svg">
<path d="M791.668 333.333H208.335C139.168 333.333 83.335 389.167 83.335 458.333V708.333H250.002V875H750.002V708.333H916.668V458.333C916.668 389.167 860.835 333.333 791.668 333.333ZM666.668 791.667H333.335V583.333H666.668V791.667ZM791.668 500C768.752 500 750.002 481.25 750.002 458.333C750.002 435.417 768.752 416.667 791.668 416.667C814.585 416.667 833.335 435.417 833.335 458.333C833.335 481.25 814.585 500 791.668 500ZM750.002 125H250.002V291.667H750.002V125Z" fill="black"/>
</svg>
