<svg width="1000" height="1000" viewBox="0 0 1000 1000" fill="none" xmlns="http://www.w3.org/2000/svg">
<path d="M733.333 266.667V733.333H266.667V266.667H733.333ZM770 200H230C213.333 200 200 213.333 200 230V770C200 783.333 213.333 800 230 800H770C783.333 800 800 783.333 800 770V230C800 213.333 783.333 200 770 200ZM466.667 333.333H666.667V400H466.667V333.333ZM466.667 466.667H666.667V533.333H466.667V466.667ZM466.667 600H666.667V666.667H466.667V600ZM333.333 333.333H400V400H333.333V333.333ZM333.333 466.667H400V533.333H333.333V466.667ZM333.333 600H400V666.667H333.333V600Z" fill="black"/>
</svg>
