<svg width="1000" height="1000" viewBox="0 0 1000 1000" fill="none" xmlns="http://www.w3.org/2000/svg">
<path d="M300 433.333C263.333 433.333 233.333 463.333 233.333 500C233.333 536.667 263.333 566.667 300 566.667C336.667 566.667 366.667 536.667 366.667 500C366.667 463.333 336.667 433.333 300 433.333ZM700 433.333C663.333 433.333 633.333 463.333 633.333 500C633.333 536.667 663.333 566.667 700 566.667C736.667 566.667 766.667 536.667 766.667 500C766.667 463.333 736.667 433.333 700 433.333ZM500 433.333C463.333 433.333 433.333 463.333 433.333 500C433.333 536.667 463.333 566.667 500 566.667C536.667 566.667 566.667 536.667 566.667 500C566.667 463.333 536.667 433.333 500 433.333Z" fill="black"/>
</svg>
