<svg width="1000" height="1000" viewBox="0 0 1000 1000" fill="none" xmlns="http://www.w3.org/2000/svg">
<path d="M733.333 366.667L600 500H700C700 610.333 610.333 700 500 700C466.333 700 434.333 691.667 406.666 676.667L358 725.333C399 751.333 447.666 766.667 500 766.667C647.333 766.667 766.666 647.333 766.666 500H866.666L733.333 366.667ZM300 500C300 389.667 389.666 300 500 300C533.666 300 565.666 308.333 593.333 323.333L642 274.667C601 248.667 552.333 233.333 500 233.333C352.666 233.333 233.333 352.667 233.333 500H133.333L266.666 633.333L400 500H300Z" fill="black"/>
</svg>
