<svg width="30" height="30" viewBox="0 0 30 30" fill="none" xmlns="http://www.w3.org/2000/svg">
<rect width="30" height="30" fill="white"/>
<path d="M23 5H11C9.9 5 9 5.9 9 7V19C9 20.1 9.9 21 11 21H23C24.1 21 25 20.1 25 19V7C25 5.9 24.1 5 23 5ZM14.5 12.5C14.5 13.33 13.83 14 13 14H12V16H10.5V10H13C13.83 10 14.5 10.67 14.5 11.5V12.5ZM19.5 14.5C19.5 15.33 18.83 16 18 16H15.5V10H18C18.83 10 19.5 10.67 19.5 11.5V14.5ZM23.5 11.5H22V12.5H23.5V14H22V16H20.5V10H23.5V11.5ZM12 12.5H13V11.5H12V12.5ZM7 9H5V23C5 24.1 5.9 25 7 25H21V23H7V9ZM17 14.5H18V11.5H17V14.5Z" fill="black"/>
</svg>
