<svg width="1000" height="1000" viewBox="0 0 1000 1000" fill="none" xmlns="http://www.w3.org/2000/svg">
<path d="M766.667 166.667H366.667C330 166.667 300 196.667 300 233.334V633.334C300 670 330 700 366.667 700H766.667C803.334 700 833.334 670 833.334 633.334V233.334C833.334 196.667 803.334 166.667 766.667 166.667ZM483.334 416.667C483.334 444.334 461 466.667 433.334 466.667H400V533.334H350V333.334H433.334C461 333.334 483.334 355.667 483.334 383.334V416.667ZM650 483.334C650 511 627.667 533.334 600 533.334H516.667V333.334H600C627.667 333.334 650 355.667 650 383.334V483.334ZM783.334 383.334H733.334V416.667H783.334V466.667H733.334V533.334H683.334V333.334H783.334V383.334ZM400 416.667H433.334V383.334H400V416.667ZM233.334 300H166.667V766.667C166.667 803.334 196.667 833.334 233.334 833.334H700V766.667H233.334V300ZM566.667 483.334H600V383.334H566.667V483.334Z" fill="black"/>
</svg>
