<svg width="1000" height="1000" viewBox="0 0 1000 1000" fill="none" xmlns="http://www.w3.org/2000/svg">
<path d="M500.001 296.666C538.667 296.666 570.001 328 570.001 366.666C570.001 405.333 538.667 436.666 500.001 436.666C461.334 436.666 430.001 405.333 430.001 366.666C430.001 328 461.334 296.666 500.001 296.666ZM500.001 596.666C599.001 596.666 703.334 645.333 703.334 666.666V703.333H296.667V666.666C296.667 645.333 401.001 596.666 500.001 596.666ZM500.001 233.333C426.334 233.333 366.667 293 366.667 366.666C366.667 440.333 426.334 500 500.001 500C573.667 500 633.334 440.333 633.334 366.666C633.334 293 573.667 233.333 500.001 233.333ZM500.001 533.333C411.001 533.333 233.334 578 233.334 666.666V766.666H766.667V666.666C766.667 578 589.001 533.333 500.001 533.333Z" fill="black"/>
</svg>
