<svg width="1000" height="1000" viewBox="0 0 1000 1000" fill="none" xmlns="http://www.w3.org/2000/svg">
<path d="M395.064 757C628.936 757 758.312 563.147 758.312 394.147C758.312 389.176 758.312 384.206 758.312 379.235C783.192 359.353 803.096 339.471 823 314.618C798.12 324.559 773.24 329.529 748.36 334.5C773.24 319.588 793.144 294.735 803.096 264.912C778.216 279.824 753.336 289.765 723.48 294.735C698.6 264.912 668.744 250 628.936 250C559.272 250 504.536 309.647 504.536 379.235C504.536 389.176 504.536 399.118 509.512 409.059C400.04 399.118 305.496 349.412 245.784 274.853C230.856 294.735 225.88 314.618 225.88 339.471C225.88 384.206 250.76 423.971 280.616 443.853C260.712 443.853 240.808 438.882 220.904 428.941C220.904 488.588 265.688 543.265 325.4 553.206C315.448 558.176 305.496 558.176 295.544 558.176C285.592 558.176 280.616 558.176 270.664 558.176C285.592 607.882 335.352 647.647 390.088 647.647C345.304 682.441 290.568 702.324 230.856 702.324C220.904 702.324 210.952 697.353 201 697.353C255.736 732.147 325.4 757 395.064 757Z" fill="#221E1B"/>
</svg>
