<svg width="1000" height="1000" viewBox="0 0 1000 1000" fill="none" xmlns="http://www.w3.org/2000/svg">
<path d="M663.747 574.568C655.998 571.123 618.114 552.18 611.226 549.597C604.338 547.013 599.172 546.152 594.006 553.902C588.84 561.652 574.203 578.873 569.037 584.04C564.732 589.206 560.427 590.067 552.678 585.762C544.929 581.456 519.96 573.707 490.686 547.013C467.439 526.348 451.941 501.377 447.636 493.627C443.331 485.877 446.775 481.572 451.08 478.128C454.524 474.683 458.829 469.517 463.134 464.35C466.578 460.045 468.3 456.601 470.883 451.434C473.466 446.268 471.744 441.962 470.022 437.657C468.3 433.352 452.802 395.465 445.914 379.965C439.887 364.466 432.999 367.049 428.694 367.049C424.389 367.049 419.223 367.049 414.057 367.049C408.891 367.049 400.281 368.771 393.393 376.521C384.783 384.271 364.98 403.214 364.98 441.101C364.98 478.989 392.532 516.015 396.837 521.181C400.281 526.348 451.08 604.705 529.431 638.287C547.512 646.037 562.149 651.203 573.342 654.648C592.284 660.675 608.643 659.814 622.419 658.092C637.056 655.509 668.052 639.148 674.94 621.066C681.828 602.983 681.828 587.484 679.245 584.04C676.662 580.595 671.496 578.873 663.747 574.568Z" fill="#221E1B"/>
<path d="M742.098 291.274C683.55 232.721 605.199 200 522.543 200C352.065 200 212.583 338.633 212.583 509.986C212.583 565.095 227.22 617.62 253.911 664.979L210 826L374.451 782.946C420.084 807.917 470.883 820.834 522.543 820.834C693.021 820.834 832.503 682.201 832.503 510.847C832.503 427.323 800.646 349.827 742.098 291.274ZM522.543 768.308C476.049 768.308 430.416 755.392 390.81 732.143L382.2 726.977L284.907 752.809L310.737 658.091L304.71 646.897C278.88 605.565 265.104 558.206 265.104 509.986C265.104 367.909 380.478 252.525 523.404 252.525C592.284 252.525 656.859 279.219 705.936 328.3C755.013 377.381 781.704 441.961 781.704 510.847C779.982 652.063 664.608 768.308 522.543 768.308Z" fill="#221E1B"/>
</svg>
